<svg xmlns="http://www.w3.org/2000/svg" width="900" height="400" viewBox="0 0 900 400" role="img" aria-labelledby="title desc">
  <title id="title">kaibush/grok-register GitHub Stars trend (dark)</title>
  <desc id="desc">GitHub Stars increased from 0 to 486 between 2026-08-03 and 2026-10-06.</desc>
  <metadata>Generated by .github/scripts/update_stars_trend.py from .github/data/stars-history.json</metadata>
  <defs>
    <style>
      text { font-family: Inter, "Segoe UI", Arial, "Noto Sans CJK SC", sans-serif; }
      .title { fill: #f0f6fc; font-size: 22px; font-weight: 600; }
      .subtitle { fill: #8b949e; font-size: 12px; }
      .count { fill: #f0f6fc; font-size: 24px; font-weight: 600; }
      .count-label { fill: #f2cc60; font-size: 13px; font-weight: 600; }
      .grid { stroke: #30363d; stroke-width: 1; opacity: 0.65; }
      .axis { fill: #8b949e; font-size: 11px; }
      .line { fill: none; stroke: #58a6ff; stroke-width: 3; stroke-linecap: round; stroke-linejoin: round; }
      .point { fill: #58a6ff; }
    </style>
  </defs>
  <text x="60" y="34" class="title">Stars 趋势</text>
  <text x="60" y="56" class="subtitle">kaibush/grok-register · 2026-08-03 — 2026-10-06</text>
  <text x="860" y="34" class="count" text-anchor="end">486</text>
  <text x="860" y="55" class="count-label" text-anchor="end">★ Stars</text>
  <line x1="60" y1="330.0" x2="860" y2="330.0" class="grid" /><text x="44" y="335.0" class="axis" text-anchor="end">0</text><line x1="60" y1="281.6" x2="860" y2="281.6" class="grid" /><text x="44" y="286.6" class="axis" text-anchor="end">100</text><line x1="60" y1="233.2" x2="860" y2="233.2" class="grid" /><text x="44" y="238.2" class="axis" text-anchor="end">200</text><line x1="60" y1="184.8" x2="860" y2="184.8" class="grid" /><text x="44" y="189.8" class="axis" text-anchor="end">300</text><line x1="60" y1="136.4" x2="860" y2="136.4" class="grid" /><text x="44" y="141.4" class="axis" text-anchor="end">400</text><line x1="60" y1="88.0" x2="860" y2="88.0" class="grid" /><text x="44" y="93.0" class="axis" text-anchor="end">500</text>
  <polyline points="60.0,330.0 78.2,291.8 96.4,272.4 114.5,252.6 132.7,240.0 150.9,235.1 169.1,230.8 187.3,225.0 205.5,218.2 223.6,210.5 241.8,196.9 260.0,185.8 278.2,182.9 296.4,181.4 314.5,178.0 332.7,176.1 350.9,175.1 369.1,173.2 387.3,169.8 405.5,169.8 423.6,169.3 441.8,166.4 460.0,165.0 478.2,163.5 496.4,160.6 514.5,154.8 532.7,151.9 550.9,150.9 569.1,104.9 587.3,104.9 605.5,103.5 623.6,101.1 641.8,100.1 660.0,99.6 678.2,99.1 696.4,98.6 714.5,98.2 732.7,97.7 750.9,97.2 769.1,97.2 787.3,96.2 805.5,96.7 823.6,96.2 841.8,96.2 860.0,94.8" class="line" />
  <text x="60.0" y="362" class="axis" text-anchor="middle">08-03</text><circle cx="60.0" cy="330.0" r="3.5" class="point" /><text x="169.1" y="362" class="axis" text-anchor="middle">08-09</text><circle cx="169.1" cy="230.8" r="3.5" class="point" /><text x="260.0" y="362" class="axis" text-anchor="middle">08-14</text><circle cx="260.0" cy="185.8" r="3.5" class="point" /><text x="350.9" y="362" class="axis" text-anchor="middle">08-19</text><circle cx="350.9" cy="175.1" r="3.5" class="point" /><text x="460.0" y="362" class="axis" text-anchor="middle">08-25</text><circle cx="460.0" cy="165.0" r="3.5" class="point" /><text x="569.1" y="362" class="axis" text-anchor="middle">09-20</text><circle cx="569.1" cy="104.9" r="3.5" class="point" /><text x="660.0" y="362" class="axis" text-anchor="middle">09-25</text><circle cx="660.0" cy="99.6" r="3.5" class="point" /><text x="750.9" y="362" class="axis" text-anchor="middle">09-30</text><circle cx="750.9" cy="97.2" r="3.5" class="point" /><text x="860.0" y="362" class="axis" text-anchor="middle">10-06</text><circle cx="860.0" cy="94.8" r="3.5" class="point" />
  <text x="860" y="386" class="subtitle" text-anchor="end">更新于 2026-10-06</text>
</svg>
