<svg xmlns="http://www.w3.org/2000/svg" width="900" height="400" viewBox="0 0 900 400" role="img" aria-labelledby="title desc">
  <title id="title">kaibush/grok-register GitHub Stars trend (light)</title>
  <desc id="desc">GitHub Stars increased from 0 to 483 between 2026-08-03 and 2026-10-05.</desc>
  <metadata>Generated by .github/scripts/update_stars_trend.py from .github/data/stars-history.json</metadata>
  <defs>
    <style>
      text { font-family: Inter, "Segoe UI", Arial, "Noto Sans CJK SC", sans-serif; }
      .title { fill: #1f2328; font-size: 22px; font-weight: 600; }
      .subtitle { fill: #59636e; font-size: 12px; }
      .count { fill: #1f2328; font-size: 24px; font-weight: 600; }
      .count-label { fill: #9a6700; font-size: 13px; font-weight: 600; }
      .grid { stroke: #d0d7de; stroke-width: 1; opacity: 0.65; }
      .axis { fill: #59636e; font-size: 11px; }
      .line { fill: none; stroke: #0969da; stroke-width: 3; stroke-linecap: round; stroke-linejoin: round; }
      .point { fill: #0969da; }
    </style>
  </defs>
  <text x="60" y="34" class="title">Stars 趋势</text>
  <text x="60" y="56" class="subtitle">kaibush/grok-register · 2026-08-03 — 2026-10-05</text>
  <text x="860" y="34" class="count" text-anchor="end">483</text>
  <text x="860" y="55" class="count-label" text-anchor="end">★ Stars</text>
  <line x1="60" y1="330.0" x2="860" y2="330.0" class="grid" /><text x="44" y="335.0" class="axis" text-anchor="end">0</text><line x1="60" y1="281.6" x2="860" y2="281.6" class="grid" /><text x="44" y="286.6" class="axis" text-anchor="end">100</text><line x1="60" y1="233.2" x2="860" y2="233.2" class="grid" /><text x="44" y="238.2" class="axis" text-anchor="end">200</text><line x1="60" y1="184.8" x2="860" y2="184.8" class="grid" /><text x="44" y="189.8" class="axis" text-anchor="end">300</text><line x1="60" y1="136.4" x2="860" y2="136.4" class="grid" /><text x="44" y="141.4" class="axis" text-anchor="end">400</text><line x1="60" y1="88.0" x2="860" y2="88.0" class="grid" /><text x="44" y="93.0" class="axis" text-anchor="end">500</text>
  <polyline points="60.0,330.0 78.6,291.8 97.2,272.4 115.8,252.6 134.4,240.0 153.0,235.1 171.6,230.8 190.2,225.0 208.8,218.2 227.4,210.5 246.0,196.9 264.7,185.8 283.3,182.9 301.9,181.4 320.5,178.0 339.1,176.1 357.7,175.1 376.3,173.2 394.9,169.8 413.5,169.8 432.1,169.3 450.7,166.4 469.3,165.0 487.9,163.5 506.5,160.6 525.1,154.8 543.7,151.9 562.3,150.9 580.9,104.9 599.5,104.9 618.1,103.5 636.7,101.1 655.3,100.1 674.0,99.6 692.6,99.1 711.2,98.6 729.8,98.2 748.4,97.7 767.0,97.2 785.6,97.2 804.2,96.2 822.8,96.7 841.4,96.2 860.0,96.2" class="line" />
  <text x="60.0" y="362" class="axis" text-anchor="middle">08-03</text><circle cx="60.0" cy="330.0" r="3.5" class="point" /><text x="153.0" y="362" class="axis" text-anchor="middle">08-08</text><circle cx="153.0" cy="235.1" r="3.5" class="point" /><text x="264.7" y="362" class="axis" text-anchor="middle">08-14</text><circle cx="264.7" cy="185.8" r="3.5" class="point" /><text x="357.7" y="362" class="axis" text-anchor="middle">08-19</text><circle cx="357.7" cy="175.1" r="3.5" class="point" /><text x="469.3" y="362" class="axis" text-anchor="middle">08-25</text><circle cx="469.3" cy="165.0" r="3.5" class="point" /><text x="562.3" y="362" class="axis" text-anchor="middle">08-30</text><circle cx="562.3" cy="150.9" r="3.5" class="point" /><text x="655.3" y="362" class="axis" text-anchor="middle">09-24</text><circle cx="655.3" cy="100.1" r="3.5" class="point" /><text x="767.0" y="362" class="axis" text-anchor="middle">09-30</text><circle cx="767.0" cy="97.2" r="3.5" class="point" /><text x="860.0" y="362" class="axis" text-anchor="middle">10-05</text><circle cx="860.0" cy="96.2" r="3.5" class="point" />
  <text x="860" y="386" class="subtitle" text-anchor="end">更新于 2026-10-05</text>
</svg>
